<?xml version="1.0" encoding="utf-8"?>
<!-- Generator: Adobe Illustrator 22.1.0, SVG Export Plug-In . SVG Version: 6.00 Build 0)  -->
<svg version="1.1" id="Layer_1" xmlns="http://www.w3.org/2000/svg" xmlns:xlink="http://www.w3.org/1999/xlink" x="0px" y="0px"
	 viewBox="0 0 270.8 404.1" style="enable-background:new 0 0 270.8 404.1;" xml:space="preserve">
<style type="text/css">
	.st0{fill:#2284C6;}
</style>
<path class="st0" d="M249.7,143L249.7,143l-46.5-50.4l0,0l25.2-3.1c5.7-0.8,10.7-3.7,14.1-8.1c6.5-8.5,10.3-19.1,10.3-30.6
	c0-26.7-20.7-48.7-46.9-50.7L75.7,0C43.7,0.8,18,27,18,59.2c0,17.3,7.5,32.9,19.3,43.7l46.1,49.9l-49.5,8.8
	c-6.7,1.1-12.5,4.8-16.4,10.1c-9.1,12.3-14.4,27.5-14.4,43.8c0,40.9,33.2,74.1,74.1,74.1c8.8,0,17.2-1.5,25-4.3l119.7-39.9
	c25.3-8.4,43.6-32.3,43.6-60.4C265.5,168.9,259.5,154.2,249.7,143z M201.9,23c15.3,0,27.7,12.4,27.7,27.7c0,7.5-3,14.2-7.8,19.2
	L133,78.9c2.2-6.2,3.4-12.8,3.4-19.7c0-12.5-3.9-24.1-10.5-33.7L201.9,23z M77.2,262.7c-26,0-47.2-21.2-47.2-47.2
	c0-11,3.8-21,10-29.1l59.9-12.3c4.5,2.5,8.5,5.6,11.9,9.3l0.4,0.4c7.5,8.4,12.2,19.4,12.2,31.6C124.4,241.5,103.2,262.7,77.2,262.7z
	 M214.9,223.3l-69.4,20.9c3.7-8.8,5.8-18.6,5.8-28.7c0-18.7-7-35.8-18.5-48.9l0,0c0,0-77.3-83.3-81.8-88.4s-6.2-11.9-6.2-19
	c0-17.3,13.7-31.5,30.8-32.3L80,27c16.5,1.4,29.5,15.3,29.5,32.2c0,10.1-4.6,19.1-11.9,25l0,0c-0.1,0.1-0.2,0.2-0.3,0.3c0,0,0,0,0,0
	c-2.5,2.1-4.2,5.3-4.2,8.9c0,6.4,5.2,11.5,11.5,11.5l0,0l5.2-0.6l65.1-8.1l57.8,62.5l0,0c6,7.1,9.7,16.3,9.7,26.3
	C242.4,202.8,230.9,217.9,214.9,223.3z"/>
<g>
	<path class="st0" d="M58.2,385.3c-1.6,0-3-0.3-4.3-0.9c-3.7-1.9-5.5-6-5.5-12.4c0-9.1,3-13.6,9.1-13.6c2,0,3.8,0.5,5.4,1.5
		c-1.5,0.7-2.3,2-2.3,3.8c0,1.1,0.4,2,1.2,2.7c0.8,0.7,2,1,3.5,1c0.9,0,1.8-0.4,2.6-1.2c0.8-0.8,1.2-1.8,1.2-3
		c0-2.3-1.2-4.1-3.7-5.3c-2.5-1.3-5.2-1.9-8.1-1.9c-5.1,0-9.3,1.4-12.6,4.3c-3.3,2.9-5,6.8-5,11.8c0,5,1.7,9,5.1,12
		c1.6,1.4,3.5,2.5,5.7,3.2s4.2,1.1,6.2,1.1c5.6,0,9.7-1.7,12.4-5.1l-1.6-1.4C65.1,384.2,62,385.3,58.2,385.3z"/>
	<path class="st0" d="M96.7,356c-3.9,0-7.6,1.5-11,4.6V356h-13v2.5h4.7v27.4h-4.7v2.4h19.9v-2.4h-6.9v-22.1c2-2.4,4.6-4.1,7.6-5.1
		c-0.2,0.5-0.3,1.1-0.3,1.6c0,1.3,0.4,2.4,1.2,3.3c0.8,0.9,1.8,1.3,3,1.3c1.2,0,2.2-0.4,3-1.2c0.8-0.8,1.2-1.9,1.2-3.2
		c0-1.3-0.5-2.4-1.5-3.2C99.1,356.4,97.9,356,96.7,356z"/>
	<path class="st0" d="M184.5,385.6c-1.3,0-2.4-0.4-3.2-1.3c-0.8-0.8-1.2-2.2-1.2-4.1v-21.8h10.4V356H180v-10.4l-8.4,2.1v8.3h-3.8
		v2.5h3.8v19.6c0,6.9,3.8,10.3,11.3,10.3c0.9,0,1.9-0.1,2.7-0.3c2.6-0.6,4.7-1.9,6.2-3.7l-1.7-1.4
		C188.5,384.7,186.6,385.6,184.5,385.6z"/>
	<path class="st0" d="M226.6,370.5c0-2.3-0.3-4.3-0.9-6.1c-1.9-5.6-6.4-8.5-13.7-8.5c-4.9,0-9,1.5-12.2,4.5c-3.2,3-4.8,6.8-4.8,11.6
		c0,4.7,1.6,8.6,4.8,11.7c1.5,1.4,3.4,2.6,5.6,3.4c2.2,0.8,4.3,1.2,6.3,1.2c6.1,0,10.8-2.1,14.1-6.2l-1.7-1.5
		c-3.1,3.1-6.6,4.7-10.4,4.7c-1.7,0-3.2-0.3-4.5-1c-3.7-2-5.5-6.3-5.5-12.8v-0.9H226.6z M211.7,358.6c2.3,0,3.9,0.8,4.9,2.4
		c1,1.6,1.5,3.9,1.5,6.9h-14.2C204.6,361.7,207.2,358.6,211.7,358.6z"/>
	<path class="st0" d="M266.2,385.9v-47.5h-14.7v2.5h6.5v18.4c-0.6-0.5-1.2-0.9-2-1.3c-2.4-1.3-4.9-1.9-7.7-1.9
		c-4.4,0-8.1,1.5-11.2,4.4c-3.1,2.9-4.6,6.9-4.6,12c0,2.7,0.4,5.1,1.2,7.1c0.8,2,1.9,3.7,3.2,5.1s2.9,2.3,4.7,2.9
		c1.8,0.6,3.5,0.9,5.2,0.9c4.9,0,8.7-1.1,11.1-3.3v3.3h12.9v-2.5H266.2z M258,381.4c-1,1.4-2.2,2.4-3.6,3.3c-1.5,0.8-3,1.2-4.6,1.2
		c-1.6,0-2.9-0.3-3.9-0.9c-3-1.7-4.5-6-4.5-12.7c0-9,2.7-13.5,8.2-13.5c0.7,0,1.4,0.1,2.2,0.3c2.5,0.5,4.6,1.7,6.2,3.5V381.4z"/>
	<path class="st0" d="M159.6,359.8c-1.4-1.3-2.9-2.3-4.7-2.9c-1.8-0.6-3.5-0.9-5.2-0.9c-4.9,0-8.7,1.1-11.1,3.3V356h-12.9v2.5h4.7
		v43.1h-4.6v2.5h18.7v-2.5h-5.9v-16.5c0.6,0.5,1.2,0.9,2,1.3c2.4,1.3,4.9,1.9,7.7,1.9c4.4,0,8.1-1.5,11.2-4.4
		c3.1-2.9,4.6-6.9,4.6-12c0-2.7-0.4-5.1-1.2-7.1C162,362.8,161,361.1,159.6,359.8z M146.9,385.6c-0.7,0-1.4-0.1-2.2-0.3
		c-2.5-0.5-4.6-1.7-6.2-3.5v-18.9c1-1.4,2.2-2.4,3.6-3.3c1.5-0.8,3-1.2,4.6-1.2c1.6,0,2.9,0.3,3.9,0.9c3,1.7,4.5,6,4.5,12.7
		C155.2,381.1,152.4,385.6,146.9,385.6z"/>
	<polygon class="st0" points="117.7,356 104.7,356 104.7,358.5 109.3,358.5 109.3,385.9 104.2,385.9 104.2,388.3 122.8,388.3 
		122.8,385.9 117.7,385.9 	"/>
	<circle class="st0" cx="113.5" cy="345.2" r="4.5"/>
	<path class="st0" d="M20.9,359.7c-5.6-2.4-9.4-4.4-11.2-6c-1.8-1.6-2.7-3.5-2.7-5.6c0-2.1,1-3.8,2.9-5.1c2-1.2,4.5-1.9,7.6-1.9
		s5.8,0.8,8.2,2.5s3.7,4,4,7h3.1v-12.1h-3c0,1.1-0.3,2.2-0.8,3.1c-1-0.8-2.4-1.6-4.4-2.2c-1.9-0.6-4.2-0.9-6.9-0.9
		c-4.8,0-8.9,1.2-12.2,3.6c-3.4,2.4-5,5.5-5,9.3c0,3.8,1.1,6.9,3.2,9.2c1.2,1.3,2.8,2.6,4.9,3.8c2.1,1.2,5.1,2.5,9.2,4
		c4.1,1.5,6.9,3,8.6,4.7c1.7,1.7,2.5,3.6,2.5,5.9c0,1.1-0.3,2.1-0.8,2.9c-1.6,2.6-4.8,3.8-9.5,3.8c-3.8,0-7-1-9.7-2.9
		c-2.7-2-4.4-4.5-5.3-7.7H0v13.3h2.9c0-1.7,0.4-3.2,1.3-4.3c0.7,0.6,1.5,1.1,2.5,1.7c3.4,1.8,7.3,2.7,11.9,2.7
		c4.6,0,8.4-1.3,11.6-3.8c3.2-2.6,4.8-6,4.8-10.5c0-3.2-1-5.8-3.1-8C29.8,363.9,26.1,361.8,20.9,359.7z"/>
</g>
</svg>
