<?xml version="1.0" encoding="utf-8"?>
<!-- Generator: Adobe Illustrator 22.1.0, SVG Export Plug-In . SVG Version: 6.00 Build 0)  -->
<svg version="1.1" id="Layer_1" xmlns="http://www.w3.org/2000/svg" xmlns:xlink="http://www.w3.org/1999/xlink" x="0px" y="0px"
	 viewBox="0 0 1222.1 253.6" style="enable-background:new 0 0 1222.1 253.6;" xml:space="preserve">
<style type="text/css">
	.st0{fill:#2284C6;}
</style>
<path class="st0" d="M215.9,125.2L215.9,125.2l-40.8-44.1l0,0l22.1-2.7c5-0.7,9.4-3.3,12.4-7.1c5.7-7.5,9-16.8,9-26.8
	c0-23.4-18.2-42.6-41.1-44.4L63.6,0C35.6,0.7,13,23.7,13,51.8C13,67,19.6,80.6,30,90.1l40.4,43.7L27,141.5c-5.9,0.9-11,4.2-14.4,8.8
	C4.7,161.1,0,174.3,0,188.7c0,35.8,29.1,64.9,64.9,64.9c7.7,0,15.1-1.3,21.9-3.8l104.8-34.9c22.2-7.3,38.2-28.3,38.2-52.9
	C229.8,147.9,224.6,135,215.9,125.2z M174.1,20.2c13.4,0,24.3,10.9,24.3,24.3c0,6.5-2.6,12.5-6.8,16.8l-77.9,7.8
	c1.9-5.4,3-11.2,3-17.3c0-10.9-3.4-21.1-9.2-29.5L174.1,20.2z M64.9,230c-22.8,0-41.3-18.5-41.3-41.3c0-9.6,3.3-18.4,8.8-25.4
	l52.4-10.8c3.9,2.2,7.4,4.9,10.5,8.2l0.4,0.4c6.6,7.3,10.6,17,10.6,27.7C106.2,211.5,87.7,230,64.9,230z M185.4,195.6l-60.8,18.3
	c3.3-7.7,5.1-16.2,5.1-25.2c0-16.4-6.1-31.4-16.2-42.8l0,0c0,0-67.7-73-71.6-77.4c-3.9-4.4-5.4-10.4-5.4-16.7
	c0-15.2,12-27.6,27-28.3l3.8,0.1c14.4,1.3,25.8,13.4,25.8,28.2c0,8.8-4.1,16.7-10.4,21.9l0,0c-0.1,0.1-0.2,0.1-0.3,0.2c0,0,0,0,0,0
	c-2.2,1.9-3.7,4.6-3.7,7.8c0,5.6,4.5,10.1,10.1,10.1l0,0l4.5-0.6l57-7.1l50.6,54.7l0,0c5.3,6.2,8.5,14.2,8.5,23
	C209.6,177.6,199.5,190.8,185.4,195.6z"/>
<g>
	<path class="st0" d="M566.5,191.4c-5,0-9.4-0.9-13.1-2.8c-11.3-5.7-16.9-18.5-16.9-38.2c0-28,9.3-42,28-42c6.3,0,11.8,1.5,16.6,4.5
		c-4.7,2.2-7.1,6.1-7.1,11.7c0,3.5,1.3,6.2,3.8,8.3c2.5,2,6.1,3.1,10.7,3.1c2.8,0,5.4-1.2,7.9-3.6c2.5-2.4,3.7-5.5,3.7-9.2
		c0-7-3.8-12.5-11.4-16.4c-7.6-3.9-15.9-5.8-24.9-5.8c-15.7,0-28.7,4.4-38.9,13.3c-10.2,8.8-15.3,20.9-15.3,36.3
		c0,15.3,5.2,27.7,15.7,36.9c4.9,4.3,10.7,7.6,17.4,9.9c6.7,2.3,13.1,3.4,19.2,3.4c17.3,0,30-5.2,38.4-15.7l-5.1-4.5
		C587.9,187.8,578.3,191.4,566.5,191.4z"/>
	<path class="st0" d="M685.3,101c-12.1,0-23.4,4.7-33.9,14.1v-14h-40.1v7.6h14.6v84.5h-14.5v7.5h61.3v-7.5h-21.3v-68
		c6.2-7.3,14.1-12.6,23.5-15.6c-0.5,1.7-0.8,3.3-0.8,4.9c0,4,1.2,7.3,3.7,10c2.5,2.7,5.6,4,9.2,4c3.6,0,6.7-1.3,9.2-3.8
		c2.5-2.5,3.8-5.8,3.8-9.9c0-4.1-1.5-7.4-4.5-10C692.6,102.3,689.2,101,685.3,101z"/>
	<path class="st0" d="M955.9,192.3c-4.2,0-7.5-1.3-10-3.9c-2.5-2.6-3.7-6.8-3.7-12.6v-67.1h32v-7.6h-32V68.9l-25.8,6.4v25.7h-11.8
		v7.6h11.8v60.4c0,21.1,11.6,31.7,34.8,31.7c2.9,0,5.7-0.3,8.4-1c8-1.9,14.4-5.8,19.1-11.5l-5.2-4.4
		C968.2,189.5,962.4,192.3,955.9,192.3z"/>
	<path class="st0" d="M1085.9,145.9c0-6.9-0.9-13.2-2.8-18.8c-5.8-17.4-19.8-26.1-42.2-26.1c-15.2,0-27.7,4.6-37.6,13.8
		c-9.9,9.2-14.8,21.1-14.8,35.7c0,14.6,4.9,26.6,14.7,36c4.7,4.5,10.5,8,17.2,10.5c6.7,2.5,13.2,3.8,19.5,3.8
		c18.8,0,33.3-6.3,43.5-19l-5.2-4.7c-9.6,9.6-20.3,14.4-32.1,14.4c-5.3,0-9.9-1.1-13.7-3.2c-11.4-6.3-17-19.5-17-39.5v-2.9H1085.9z
		 M1039.9,109.2c6.9,0,11.9,2.5,15,7.4c3.1,4.9,4.6,12,4.8,21.3h-43.8C1017.8,118.7,1025.9,109.2,1039.9,109.2z"/>
	<path class="st0" d="M1207.7,193.1V46.7h-45.5v7.6h20.2V111c-1.8-1.5-3.8-2.9-6.1-4.1c-7.3-3.9-15.2-5.9-23.8-5.9
		c-13.6,0-25.1,4.5-34.5,13.6c-9.4,9-14.1,21.3-14.1,36.9c0,8.3,1.2,15.6,3.7,21.9c2.4,6.3,5.7,11.5,9.9,15.6s9.1,7.1,14.6,9
		c5.5,1.9,10.9,2.9,15.9,2.9c15.2,0,26.7-3.4,34.4-10.1v10h39.7v-7.6H1207.7z M1182.4,179.3c-3,4.2-6.7,7.5-11.2,10
		c-4.5,2.5-9.2,3.7-14.1,3.7c-4.9,0-8.9-1-12.1-2.8c-9.1-5.4-13.7-18.4-13.7-39.1c0-27.8,8.5-41.8,25.4-41.8c2.1,0,4.4,0.3,6.7,0.8
		c7.7,1.7,14.1,5.3,19.1,10.8V179.3z"/>
	<path class="st0" d="M879.2,112.9c-4.2-4.1-9.1-7.1-14.6-9c-5.5-1.9-10.9-2.9-15.9-2.9c-15.2,0-26.7,3.4-34.4,10.1v-10h-39.7v7.6
		H789v133h-14.1v7.6h57.5v-7.6h-18.1v-51c1.8,1.5,3.8,2.9,6.1,4.1c7.3,3.9,15.2,5.9,23.8,5.9c13.6,0,25.1-4.5,34.5-13.6
		c9.4-9,14.1-21.3,14.1-36.9c0-8.3-1.2-15.6-3.7-21.9C886.7,122.1,883.4,116.9,879.2,112.9z M840.2,192.4c-2.1,0-4.4-0.3-6.7-0.8
		c-7.7-1.7-14.1-5.3-19.1-10.8v-58.3c3-4.2,6.7-7.5,11.2-10c4.5-2.5,9.2-3.7,14.1-3.7c4.9,0,8.9,1,12.1,2.8
		c9.1,5.4,13.7,18.4,13.7,39.1C865.6,178.5,857.1,192.4,840.2,192.4z"/>
	<polygon class="st0" points="750.1,101.1 709.9,101.1 709.9,108.7 724.3,108.7 724.3,193.1 708.5,193.1 708.5,200.7 765.9,200.7 
		765.9,193.1 750.1,193.1 	"/>
	<circle class="st0" cx="737.2" cy="67.6" r="13.8"/>
	<path class="st0" d="M451.5,112.5c-17.3-7.4-28.8-13.6-34.5-18.6c-5.6-5-8.4-10.7-8.4-17.3c0-6.6,3-11.8,9-15.6
		c6-3.8,13.8-5.7,23.4-5.7c9.5,0,17.9,2.5,25.2,7.6c7.3,5.1,11.4,12.2,12.4,21.5h9.6V47H479c-0.1,3.5-1,6.7-2.6,9.6
		c-3.1-2.6-7.5-4.9-13.4-6.8c-5.9-1.9-13-2.9-21.3-2.9c-14.8,0-27.4,3.7-37.7,11c-10.3,7.3-15.5,16.8-15.5,28.6
		c0,11.7,3.2,21.2,9.7,28.5c3.7,4.1,8.7,8,15.1,11.7c6.4,3.7,15.8,7.8,28.3,12.3c12.5,4.5,21.3,9.3,26.5,14.3
		c5.2,5.1,7.7,11.2,7.7,18.3c0,3.3-0.8,6.3-2.4,9c-5,7.9-14.8,11.8-29.4,11.8c-11.7,0-21.7-3-30-9.1c-8.3-6-13.7-13.9-16.3-23.7
		h-10.3v41h8.9c0-5.3,1.4-9.7,4.1-13.2c2,1.8,4.6,3.5,7.6,5.1c10.4,5.5,22.6,8.2,36.6,8.2c14,0,26-3.9,35.9-11.8
		c9.9-7.9,14.8-18.6,14.8-32.3c0-9.7-3.2-17.9-9.6-24.5C479.2,125.5,467.8,119,451.5,112.5z"/>
</g>
</svg>
